<svg xmlns="http://www.w3.org/2000/svg" viewBox="0 0 800 320">
  <rect width="800" height="320" fill="#FAFAFA"/>
  <!-- Halftone dots pattern -->
  <defs>
    <pattern id="dots-hhp" x="0" y="0" width="16" height="16" patternUnits="userSpaceOnUse">
      <circle cx="4" cy="4" r="1.2" fill="#000" opacity="0.05"/>
    </pattern>
  </defs>
  <rect width="800" height="320" fill="url(#dots-hhp)"/>
  <!-- Subtitle -->
  <rect x="220" y="12" width="360" height="32" fill="#E8A838" stroke="#000" stroke-width="3" transform="rotate(-1 400 28)"/>
  <text x="400" y="35" font-family="system-ui, sans-serif" font-size="13" font-weight="900" fill="#000" text-anchor="middle" letter-spacing="2" transform="rotate(-1 400 35)">MODELL NACH SCHOLLERER</text>
  <!-- Hook card -->
  <rect x="50" y="65" width="200" height="190" fill="#FFF" stroke="#000" stroke-width="4"/>
  <!-- Fishing hook icon -->
  <path d="M135 100 L135 140 Q135 165 155 165 Q175 165 175 140 L175 130" fill="none" stroke="#000" stroke-width="5" stroke-linecap="round"/>
  <circle cx="135" cy="92" r="6" fill="#E8A838" stroke="#000" stroke-width="3"/>
  <!-- Hook sticker label -->
  <rect x="85" y="185" width="130" height="40" fill="#E8A838" stroke="#000" stroke-width="4"/>
  <text x="150" y="212" font-family="system-ui, sans-serif" font-size="22" font-weight="900" fill="#000" text-anchor="middle">HOOK</text>
  <text x="150" y="245" font-family="system-ui, sans-serif" font-size="13" font-weight="700" fill="#000" text-anchor="middle" opacity="0.6">Einfangen</text>
  <!-- Arrow 1 -->
  <polygon points="270,155 300,140 300,170" fill="#000"/>
  <line x1="255" y1="155" x2="300" y2="155" stroke="#000" stroke-width="4" stroke-linecap="round"/>
  <!-- Hold card -->
  <rect x="300" y="65" width="200" height="190" fill="#FFF" stroke="#000" stroke-width="4"/>
  <!-- Hand/grip icon -->
  <rect x="365" y="95" width="35" height="55" fill="#E8A838" stroke="#000" stroke-width="4"/>
  <rect x="355" y="95" width="55" height="12" fill="#E8A838" stroke="#000" stroke-width="3"/>
  <rect x="355" y="115" width="55" height="12" fill="#E8A838" stroke="#000" stroke-width="3"/>
  <rect x="355" y="135" width="55" height="12" fill="#E8A838" stroke="#000" stroke-width="3"/>
  <!-- Hold sticker label -->
  <rect x="335" y="185" width="130" height="40" fill="#E8A838" stroke="#000" stroke-width="4"/>
  <text x="400" y="212" font-family="system-ui, sans-serif" font-size="22" font-weight="900" fill="#000" text-anchor="middle">HOLD</text>
  <text x="400" y="245" font-family="system-ui, sans-serif" font-size="13" font-weight="700" fill="#000" text-anchor="middle" opacity="0.6">Dranbleiben</text>
  <!-- Arrow 2 -->
  <polygon points="520,155 550,140 550,170" fill="#000"/>
  <line x1="505" y1="155" x2="550" y2="155" stroke="#000" stroke-width="4" stroke-linecap="round"/>
  <!-- Payoff card -->
  <rect x="550" y="65" width="200" height="190" fill="#FFF" stroke="#000" stroke-width="4"/>
  <!-- Star/reward icon -->
  <polygon points="650,95 660,120 688,120 666,136 674,162 650,146 626,162 634,136 612,120 640,120" fill="#FF6B6B" stroke="#000" stroke-width="3"/>
  <!-- Payoff sticker label — slightly tilted -->
  <rect x="580" y="185" width="140" height="40" fill="#FF6B6B" stroke="#000" stroke-width="4" transform="rotate(2 650 205)"/>
  <text x="650" y="212" font-family="system-ui, sans-serif" font-size="22" font-weight="900" fill="#FFF" text-anchor="middle" transform="rotate(2 650 212)">PAYOFF</text>
  <text x="650" y="245" font-family="system-ui, sans-serif" font-size="13" font-weight="700" fill="#000" text-anchor="middle" opacity="0.6">Belohnung</text>
  <!-- Decorative tilted square -->
  <rect x="20" y="15" width="20" height="20" fill="#E91E8C" stroke="#000" stroke-width="3" transform="rotate(20 30 25)"/>
  <!-- Decorative star bottom-left -->
  <polygon points="40,290 46,304 62,304 50,312 54,326 40,318 26,326 30,312 18,304 34,304" fill="#000"/>
  <!-- Decorative square bottom-right -->
  <rect x="760" y="275" width="18" height="18" fill="#E8A838" stroke="#000" stroke-width="3" transform="rotate(-10 769 284)"/>
</svg>
