<svg xmlns="http://www.w3.org/2000/svg" viewBox="0 0 800 320" fill="none">
  <rect width="800" height="320" rx="16" fill="#1A1926"/>
  <text x="400" y="40" text-anchor="middle" font-family="system-ui,sans-serif" font-size="14" font-weight="600" fill="#A7A9BE" letter-spacing="0.1em">MODELL NACH CHRISTINA MARIA SCHOLLERER</text>
  <!-- Hook -->
  <rect x="60" y="70" width="200" height="200" rx="16" fill="#1A1926" stroke="#E8A838" stroke-width="2"/>
  <rect x="110" y="100" width="100" height="70" rx="8" fill="none" stroke="#FFFFFE" stroke-width="2.5"/>
  <path d="M140 135 L160 115 L180 135" fill="none" stroke="#FFFFFE" stroke-width="2.5" stroke-linecap="round" stroke-linejoin="round"/>
  <line x1="130" y1="155" x2="190" y2="155" stroke="#FFFFFE" stroke-width="2" stroke-linecap="round"/>
  <text x="160" y="210" text-anchor="middle" font-family="system-ui,sans-serif" font-size="28" font-weight="700" fill="#E8A838">Hook</text>
  <text x="160" y="240" text-anchor="middle" font-family="system-ui,sans-serif" font-size="14" fill="#A7A9BE">Einfangen</text>
  <!-- Hold -->
  <rect x="300" y="70" width="200" height="200" rx="16" fill="#1A1926" stroke="#E8A838" stroke-width="2"/>
  <rect x="350" y="100" width="100" height="70" rx="8" fill="none" stroke="#FFFFFE" stroke-width="2.5"/>
  <path d="M380 135 L400 115 L420 135" fill="none" stroke="#FFFFFE" stroke-width="2.5" stroke-linecap="round" stroke-linejoin="round"/>
  <line x1="370" y1="155" x2="430" y2="155" stroke="#FFFFFE" stroke-width="2" stroke-linecap="round"/>
  <circle cx="400" cy="95" r="12" fill="none" stroke="#E8A838" stroke-width="2"/>
  <path d="M395 95 L400 90 L405 95" fill="none" stroke="#E8A838" stroke-width="2" stroke-linecap="round"/>
  <text x="400" y="210" text-anchor="middle" font-family="system-ui,sans-serif" font-size="28" font-weight="700" fill="#E8A838">Hold</text>
  <text x="400" y="240" text-anchor="middle" font-family="system-ui,sans-serif" font-size="14" fill="#A7A9BE">Dranbleiben</text>
  <!-- Payoff -->
  <rect x="540" y="70" width="200" height="200" rx="16" fill="#1A1926" stroke="#E8A838" stroke-width="2"/>
  <rect x="590" y="100" width="100" height="70" rx="8" fill="none" stroke="#FFFFFE" stroke-width="2.5"/>
  <path d="M620 135 L640 115 L660 135" fill="none" stroke="#FFFFFE" stroke-width="2.5" stroke-linecap="round" stroke-linejoin="round"/>
  <line x1="610" y1="155" x2="670" y2="155" stroke="#FFFFFE" stroke-width="2" stroke-linecap="round"/>
  <path d="M625 88 L640 78 L655 88" fill="none" stroke="#FF6B6B" stroke-width="2" stroke-linecap="round"/>
  <path d="M630 95 L640 85 L650 95" fill="none" stroke="#FF6B6B" stroke-width="2" stroke-linecap="round"/>
  <text x="640" y="210" text-anchor="middle" font-family="system-ui,sans-serif" font-size="28" font-weight="700" fill="#E8A838">Payoff</text>
  <text x="640" y="240" text-anchor="middle" font-family="system-ui,sans-serif" font-size="14" fill="#A7A9BE">Belohnung</text>
  <!-- Arrows -->
  <path d="M270 170 L290 170" stroke="#E8A838" stroke-width="2" stroke-linecap="round"/>
  <path d="M285 163 L295 170 L285 177" fill="none" stroke="#E8A838" stroke-width="2" stroke-linecap="round" stroke-linejoin="round"/>
  <path d="M510 170 L530 170" stroke="#E8A838" stroke-width="2" stroke-linecap="round"/>
  <path d="M525 163 L535 170 L525 177" fill="none" stroke="#E8A838" stroke-width="2" stroke-linecap="round" stroke-linejoin="round"/>
</svg>
