<svg xmlns="http://www.w3.org/2000/svg" viewBox="0 0 800 400">
  <defs>
    <linearGradient id="bg3" x1="0" y1="0" x2="0" y2="1">
      <stop offset="0%" stop-color="#0A1A14"/>
      <stop offset="100%" stop-color="#0F2620"/>
    </linearGradient>
  </defs>
  <rect width="800" height="400" fill="url(#bg3)"/>
  <!-- Audio waveform visualization -->
  <g transform="translate(100, 200)" opacity="0.8">
    <!-- Left waveform bars -->
    <rect x="0" y="-20" width="8" height="40" rx="4" fill="#10B981" opacity="0.5"/>
    <rect x="18" y="-35" width="8" height="70" rx="4" fill="#10B981" opacity="0.6"/>
    <rect x="36" y="-55" width="8" height="110" rx="4" fill="#10B981" opacity="0.7"/>
    <rect x="54" y="-40" width="8" height="80" rx="4" fill="#10B981" opacity="0.6"/>
    <rect x="72" y="-70" width="8" height="140" rx="4" fill="#10B981" opacity="0.8"/>
    <rect x="90" y="-50" width="8" height="100" rx="4" fill="#10B981" opacity="0.7"/>
    <rect x="108" y="-80" width="8" height="160" rx="4" fill="#10B981" opacity="0.9"/>
    <rect x="126" y="-45" width="8" height="90" rx="4" fill="#10B981" opacity="0.6"/>
    <rect x="144" y="-65" width="8" height="130" rx="4" fill="#10B981" opacity="0.8"/>
    <rect x="162" y="-30" width="8" height="60" rx="4" fill="#10B981" opacity="0.5"/>
    <!-- Center peak -->
    <rect x="180" y="-90" width="8" height="180" rx="4" fill="#34D399" opacity="1"/>
    <rect x="198" y="-85" width="8" height="170" rx="4" fill="#10B981" opacity="0.9"/>
    <rect x="216" y="-95" width="8" height="190" rx="4" fill="#34D399" opacity="1"/>
    <rect x="234" y="-75" width="8" height="150" rx="4" fill="#10B981" opacity="0.85"/>
    <rect x="252" y="-88" width="8" height="176" rx="4" fill="#34D399" opacity="0.95"/>
    <!-- Right waveform bars -->
    <rect x="270" y="-60" width="8" height="120" rx="4" fill="#10B981" opacity="0.75"/>
    <rect x="288" y="-70" width="8" height="140" rx="4" fill="#10B981" opacity="0.8"/>
    <rect x="306" y="-45" width="8" height="90" rx="4" fill="#10B981" opacity="0.6"/>
    <rect x="324" y="-55" width="8" height="110" rx="4" fill="#10B981" opacity="0.7"/>
    <rect x="342" y="-35" width="8" height="70" rx="4" fill="#10B981" opacity="0.55"/>
    <rect x="360" y="-50" width="8" height="100" rx="4" fill="#10B981" opacity="0.65"/>
    <rect x="378" y="-30" width="8" height="60" rx="4" fill="#10B981" opacity="0.5"/>
    <rect x="396" y="-40" width="8" height="80" rx="4" fill="#10B981" opacity="0.55"/>
    <rect x="414" y="-25" width="8" height="50" rx="4" fill="#10B981" opacity="0.45"/>
    <rect x="432" y="-35" width="8" height="70" rx="4" fill="#10B981" opacity="0.5"/>
    <rect x="450" y="-20" width="8" height="40" rx="4" fill="#10B981" opacity="0.4"/>
    <rect x="468" y="-30" width="8" height="60" rx="4" fill="#10B981" opacity="0.45"/>
    <rect x="486" y="-15" width="8" height="30" rx="4" fill="#10B981" opacity="0.35"/>
    <rect x="504" y="-25" width="8" height="50" rx="4" fill="#10B981" opacity="0.4"/>
    <rect x="522" y="-12" width="8" height="24" rx="4" fill="#10B981" opacity="0.3"/>
    <rect x="540" y="-18" width="8" height="36" rx="4" fill="#10B981" opacity="0.35"/>
    <rect x="558" y="-10" width="8" height="20" rx="4" fill="#10B981" opacity="0.25"/>
    <rect x="576" y="-8" width="8" height="16" rx="4" fill="#10B981" opacity="0.2"/>
  </g>
  <!-- Text cursor blinking -->
  <rect x="660" y="120" width="3" height="160" rx="1" fill="#A78BFA" opacity="0.6"/>
  <!-- Floating text snippets -->
  <rect x="640" y="140" width="80" height="8" rx="4" fill="#A78BFA" opacity="0.15"/>
  <rect x="640" y="160" width="120" height="8" rx="4" fill="#A78BFA" opacity="0.2"/>
  <rect x="640" y="180" width="90" height="8" rx="4" fill="#A78BFA" opacity="0.15"/>
  <rect x="640" y="200" width="110" height="8" rx="4" fill="#A78BFA" opacity="0.2"/>
  <rect x="640" y="220" width="70" height="8" rx="4" fill="#A78BFA" opacity="0.12"/>
  <rect x="640" y="240" width="100" height="8" rx="4" fill="#A78BFA" opacity="0.18"/>
  <!-- Ambient glow -->
  <ellipse cx="320" cy="200" rx="200" ry="120" fill="#10B981" opacity="0.06"/>
</svg>
